<mxfile host="Electron" agent="Mozilla/5.0 (Windows NT 10.0; Win64; x64) AppleWebKit/537.36 (KHTML, like Gecko) draw.io/25.0.2 Chrome/128.0.6613.186 Electron/32.2.5 Safari/537.36" version="25.0.2">
  <diagram name="Page-1" id="x7RRJRi4aPQr_7EZlmOs">
    <mxGraphModel dx="1733" dy="1313" grid="1" gridSize="10" guides="1" tooltips="1" connect="1" arrows="1" fold="1" page="1" pageScale="1" pageWidth="850" pageHeight="1100" math="0" shadow="0">
      <root>
        <mxCell id="0" />
        <mxCell id="1" parent="0" />
        <mxCell id="4jfZitokeRGyZpIdJ490-1" value="&lt;i&gt;&amp;lt;&amp;lt;interface&amp;gt;&amp;gt;&lt;/i&gt;&lt;div&gt;&lt;i&gt;IAuthService&lt;/i&gt;&lt;br&gt;&lt;/div&gt;" style="swimlane;fontStyle=1;align=center;verticalAlign=top;childLayout=stackLayout;horizontal=1;startSize=40;horizontalStack=0;resizeParent=1;resizeParentMax=0;resizeLast=0;collapsible=1;marginBottom=0;whiteSpace=wrap;html=1;" vertex="1" parent="1">
          <mxGeometry x="350" y="50" width="240" height="126" as="geometry" />
        </mxCell>
        <mxCell id="4jfZitokeRGyZpIdJ490-3" value="" style="line;strokeWidth=1;fillColor=none;align=left;verticalAlign=middle;spacingTop=-1;spacingLeft=3;spacingRight=3;rotatable=0;labelPosition=right;points=[];portConstraint=eastwest;strokeColor=inherit;" vertex="1" parent="4jfZitokeRGyZpIdJ490-1">
          <mxGeometry y="40" width="240" height="8" as="geometry" />
        </mxCell>
        <mxCell id="4jfZitokeRGyZpIdJ490-4" value="+login(credentials: array) : bool" style="text;strokeColor=none;fillColor=none;align=left;verticalAlign=top;spacingLeft=4;spacingRight=4;overflow=hidden;rotatable=0;points=[[0,0.5],[1,0.5]];portConstraint=eastwest;whiteSpace=wrap;html=1;" vertex="1" parent="4jfZitokeRGyZpIdJ490-1">
          <mxGeometry y="48" width="240" height="26" as="geometry" />
        </mxCell>
        <mxCell id="4jfZitokeRGyZpIdJ490-5" value="+logout(request: Request) : void" style="text;strokeColor=none;fillColor=none;align=left;verticalAlign=top;spacingLeft=4;spacingRight=4;overflow=hidden;rotatable=0;points=[[0,0.5],[1,0.5]];portConstraint=eastwest;whiteSpace=wrap;html=1;" vertex="1" parent="4jfZitokeRGyZpIdJ490-1">
          <mxGeometry y="74" width="240" height="26" as="geometry" />
        </mxCell>
        <mxCell id="4jfZitokeRGyZpIdJ490-6" value="+getCurrentUser() : mixed" style="text;strokeColor=none;fillColor=none;align=left;verticalAlign=top;spacingLeft=4;spacingRight=4;overflow=hidden;rotatable=0;points=[[0,0.5],[1,0.5]];portConstraint=eastwest;whiteSpace=wrap;html=1;" vertex="1" parent="4jfZitokeRGyZpIdJ490-1">
          <mxGeometry y="100" width="240" height="26" as="geometry" />
        </mxCell>
        <mxCell id="4jfZitokeRGyZpIdJ490-7" value="AuthController" style="swimlane;fontStyle=1;align=center;verticalAlign=top;childLayout=stackLayout;horizontal=1;startSize=26;horizontalStack=0;resizeParent=1;resizeParentMax=0;resizeLast=0;collapsible=1;marginBottom=0;whiteSpace=wrap;html=1;" vertex="1" parent="1">
          <mxGeometry x="770" y="55" width="250" height="216" as="geometry" />
        </mxCell>
        <mxCell id="4jfZitokeRGyZpIdJ490-8" value="-authService: AuthServiceProxy" style="text;strokeColor=none;fillColor=none;align=left;verticalAlign=top;spacingLeft=4;spacingRight=4;overflow=hidden;rotatable=0;points=[[0,0.5],[1,0.5]];portConstraint=eastwest;whiteSpace=wrap;html=1;" vertex="1" parent="4jfZitokeRGyZpIdJ490-7">
          <mxGeometry y="26" width="250" height="26" as="geometry" />
        </mxCell>
        <mxCell id="4jfZitokeRGyZpIdJ490-9" value="" style="line;strokeWidth=1;fillColor=none;align=left;verticalAlign=middle;spacingTop=-1;spacingLeft=3;spacingRight=3;rotatable=0;labelPosition=right;points=[];portConstraint=eastwest;strokeColor=inherit;" vertex="1" parent="4jfZitokeRGyZpIdJ490-7">
          <mxGeometry y="52" width="250" height="8" as="geometry" />
        </mxCell>
        <mxCell id="4jfZitokeRGyZpIdJ490-10" value="+__construct()" style="text;strokeColor=none;fillColor=none;align=left;verticalAlign=top;spacingLeft=4;spacingRight=4;overflow=hidden;rotatable=0;points=[[0,0.5],[1,0.5]];portConstraint=eastwest;whiteSpace=wrap;html=1;" vertex="1" parent="4jfZitokeRGyZpIdJ490-7">
          <mxGeometry y="60" width="250" height="26" as="geometry" />
        </mxCell>
        <mxCell id="4jfZitokeRGyZpIdJ490-11" value="+showLoginForm() : View" style="text;strokeColor=none;fillColor=none;align=left;verticalAlign=top;spacingLeft=4;spacingRight=4;overflow=hidden;rotatable=0;points=[[0,0.5],[1,0.5]];portConstraint=eastwest;whiteSpace=wrap;html=1;" vertex="1" parent="4jfZitokeRGyZpIdJ490-7">
          <mxGeometry y="86" width="250" height="26" as="geometry" />
        </mxCell>
        <mxCell id="4jfZitokeRGyZpIdJ490-12" value="+login(Request) : Response" style="text;strokeColor=none;fillColor=none;align=left;verticalAlign=top;spacingLeft=4;spacingRight=4;overflow=hidden;rotatable=0;points=[[0,0.5],[1,0.5]];portConstraint=eastwest;whiteSpace=wrap;html=1;" vertex="1" parent="4jfZitokeRGyZpIdJ490-7">
          <mxGeometry y="112" width="250" height="26" as="geometry" />
        </mxCell>
        <mxCell id="4jfZitokeRGyZpIdJ490-13" value="+logout(Request) : Response" style="text;strokeColor=none;fillColor=none;align=left;verticalAlign=top;spacingLeft=4;spacingRight=4;overflow=hidden;rotatable=0;points=[[0,0.5],[1,0.5]];portConstraint=eastwest;whiteSpace=wrap;html=1;" vertex="1" parent="4jfZitokeRGyZpIdJ490-7">
          <mxGeometry y="138" width="250" height="26" as="geometry" />
        </mxCell>
        <mxCell id="4jfZitokeRGyZpIdJ490-14" value="+showRegisterForm() : View" style="text;strokeColor=none;fillColor=none;align=left;verticalAlign=top;spacingLeft=4;spacingRight=4;overflow=hidden;rotatable=0;points=[[0,0.5],[1,0.5]];portConstraint=eastwest;whiteSpace=wrap;html=1;" vertex="1" parent="4jfZitokeRGyZpIdJ490-7">
          <mxGeometry y="164" width="250" height="26" as="geometry" />
        </mxCell>
        <mxCell id="4jfZitokeRGyZpIdJ490-15" value="+register(Request) : Response" style="text;strokeColor=none;fillColor=none;align=left;verticalAlign=top;spacingLeft=4;spacingRight=4;overflow=hidden;rotatable=0;points=[[0,0.5],[1,0.5]];portConstraint=eastwest;whiteSpace=wrap;html=1;" vertex="1" parent="4jfZitokeRGyZpIdJ490-7">
          <mxGeometry y="190" width="250" height="26" as="geometry" />
        </mxCell>
        <mxCell id="4jfZitokeRGyZpIdJ490-60" style="edgeStyle=orthogonalEdgeStyle;rounded=0;orthogonalLoop=1;jettySize=auto;html=1;exitX=0.5;exitY=0;exitDx=0;exitDy=0;" edge="1" parent="1" source="4jfZitokeRGyZpIdJ490-20">
          <mxGeometry relative="1" as="geometry">
            <mxPoint x="880.0000000000005" y="430" as="targetPoint" />
          </mxGeometry>
        </mxCell>
        <mxCell id="4jfZitokeRGyZpIdJ490-20" value="AuthServiceProxy" style="swimlane;fontStyle=1;align=center;verticalAlign=top;childLayout=stackLayout;horizontal=1;startSize=26;horizontalStack=0;resizeParent=1;resizeParentMax=0;resizeLast=0;collapsible=1;marginBottom=0;whiteSpace=wrap;html=1;" vertex="1" parent="1">
          <mxGeometry x="760" y="440" width="300" height="320" as="geometry" />
        </mxCell>
        <mxCell id="4jfZitokeRGyZpIdJ490-21" value="-realAuthService: RealAuthService" style="text;strokeColor=none;fillColor=none;align=left;verticalAlign=top;spacingLeft=4;spacingRight=4;overflow=hidden;rotatable=0;points=[[0,0.5],[1,0.5]];portConstraint=eastwest;whiteSpace=wrap;html=1;" vertex="1" parent="4jfZitokeRGyZpIdJ490-20">
          <mxGeometry y="26" width="300" height="26" as="geometry" />
        </mxCell>
        <mxCell id="4jfZitokeRGyZpIdJ490-24" value="-maxAttempts: int" style="text;strokeColor=none;fillColor=none;align=left;verticalAlign=top;spacingLeft=4;spacingRight=4;overflow=hidden;rotatable=0;points=[[0,0.5],[1,0.5]];portConstraint=eastwest;whiteSpace=wrap;html=1;" vertex="1" parent="4jfZitokeRGyZpIdJ490-20">
          <mxGeometry y="52" width="300" height="26" as="geometry" />
        </mxCell>
        <mxCell id="4jfZitokeRGyZpIdJ490-23" value="-decayMinutes: int" style="text;strokeColor=none;fillColor=none;align=left;verticalAlign=top;spacingLeft=4;spacingRight=4;overflow=hidden;rotatable=0;points=[[0,0.5],[1,0.5]];portConstraint=eastwest;whiteSpace=wrap;html=1;" vertex="1" parent="4jfZitokeRGyZpIdJ490-20">
          <mxGeometry y="78" width="300" height="26" as="geometry" />
        </mxCell>
        <mxCell id="4jfZitokeRGyZpIdJ490-22" value="" style="line;strokeWidth=1;fillColor=none;align=left;verticalAlign=middle;spacingTop=-1;spacingLeft=3;spacingRight=3;rotatable=0;labelPosition=right;points=[];portConstraint=eastwest;strokeColor=inherit;" vertex="1" parent="4jfZitokeRGyZpIdJ490-20">
          <mxGeometry y="104" width="300" height="8" as="geometry" />
        </mxCell>
        <mxCell id="4jfZitokeRGyZpIdJ490-25" value="+__construct(RealAuthService)" style="text;strokeColor=none;fillColor=none;align=left;verticalAlign=top;spacingLeft=4;spacingRight=4;overflow=hidden;rotatable=0;points=[[0,0.5],[1,0.5]];portConstraint=eastwest;whiteSpace=wrap;html=1;" vertex="1" parent="4jfZitokeRGyZpIdJ490-20">
          <mxGeometry y="112" width="300" height="26" as="geometry" />
        </mxCell>
        <mxCell id="4jfZitokeRGyZpIdJ490-26" value="+login(credentials: array) : bool" style="text;strokeColor=none;fillColor=none;align=left;verticalAlign=top;spacingLeft=4;spacingRight=4;overflow=hidden;rotatable=0;points=[[0,0.5],[1,0.5]];portConstraint=eastwest;whiteSpace=wrap;html=1;" vertex="1" parent="4jfZitokeRGyZpIdJ490-20">
          <mxGeometry y="138" width="300" height="26" as="geometry" />
        </mxCell>
        <mxCell id="4jfZitokeRGyZpIdJ490-27" value="+logout(request: Request) : void" style="text;strokeColor=none;fillColor=none;align=left;verticalAlign=top;spacingLeft=4;spacingRight=4;overflow=hidden;rotatable=0;points=[[0,0.5],[1,0.5]];portConstraint=eastwest;whiteSpace=wrap;html=1;" vertex="1" parent="4jfZitokeRGyZpIdJ490-20">
          <mxGeometry y="164" width="300" height="26" as="geometry" />
        </mxCell>
        <mxCell id="4jfZitokeRGyZpIdJ490-28" value="+getCurrentUser() : mixed" style="text;strokeColor=none;fillColor=none;align=left;verticalAlign=top;spacingLeft=4;spacingRight=4;overflow=hidden;rotatable=0;points=[[0,0.5],[1,0.5]];portConstraint=eastwest;whiteSpace=wrap;html=1;" vertex="1" parent="4jfZitokeRGyZpIdJ490-20">
          <mxGeometry y="190" width="300" height="26" as="geometry" />
        </mxCell>
        <mxCell id="4jfZitokeRGyZpIdJ490-29" value="-checkLoginThrottle(email: string) : bool" style="text;strokeColor=none;fillColor=none;align=left;verticalAlign=top;spacingLeft=4;spacingRight=4;overflow=hidden;rotatable=0;points=[[0,0.5],[1,0.5]];portConstraint=eastwest;whiteSpace=wrap;html=1;" vertex="1" parent="4jfZitokeRGyZpIdJ490-20">
          <mxGeometry y="216" width="300" height="26" as="geometry" />
        </mxCell>
        <mxCell id="4jfZitokeRGyZpIdJ490-30" value="-incrementLoginAttempts(email: string) : void" style="text;strokeColor=none;fillColor=none;align=left;verticalAlign=top;spacingLeft=4;spacingRight=4;overflow=hidden;rotatable=0;points=[[0,0.5],[1,0.5]];portConstraint=eastwest;whiteSpace=wrap;html=1;" vertex="1" parent="4jfZitokeRGyZpIdJ490-20">
          <mxGeometry y="242" width="300" height="26" as="geometry" />
        </mxCell>
        <mxCell id="4jfZitokeRGyZpIdJ490-31" value="-clearLoginAttempts(email: string) : void" style="text;strokeColor=none;fillColor=none;align=left;verticalAlign=top;spacingLeft=4;spacingRight=4;overflow=hidden;rotatable=0;points=[[0,0.5],[1,0.5]];portConstraint=eastwest;whiteSpace=wrap;html=1;" vertex="1" parent="4jfZitokeRGyZpIdJ490-20">
          <mxGeometry y="268" width="300" height="26" as="geometry" />
        </mxCell>
        <mxCell id="4jfZitokeRGyZpIdJ490-32" value="-getLoginAttempsCacheKey(email: string):string" style="text;strokeColor=none;fillColor=none;align=left;verticalAlign=top;spacingLeft=4;spacingRight=4;overflow=hidden;rotatable=0;points=[[0,0.5],[1,0.5]];portConstraint=eastwest;whiteSpace=wrap;html=1;" vertex="1" parent="4jfZitokeRGyZpIdJ490-20">
          <mxGeometry y="294" width="300" height="26" as="geometry" />
        </mxCell>
        <mxCell id="4jfZitokeRGyZpIdJ490-33" value="&lt;div&gt;RealAuthService&lt;/div&gt;" style="swimlane;fontStyle=1;align=center;verticalAlign=top;childLayout=stackLayout;horizontal=1;startSize=30;horizontalStack=0;resizeParent=1;resizeParentMax=0;resizeLast=0;collapsible=1;marginBottom=0;whiteSpace=wrap;html=1;" vertex="1" parent="1">
          <mxGeometry x="390" y="852.33" width="240" height="116" as="geometry" />
        </mxCell>
        <mxCell id="4jfZitokeRGyZpIdJ490-34" value="" style="line;strokeWidth=1;fillColor=none;align=left;verticalAlign=middle;spacingTop=-1;spacingLeft=3;spacingRight=3;rotatable=0;labelPosition=right;points=[];portConstraint=eastwest;strokeColor=inherit;" vertex="1" parent="4jfZitokeRGyZpIdJ490-33">
          <mxGeometry y="30" width="240" height="8" as="geometry" />
        </mxCell>
        <mxCell id="4jfZitokeRGyZpIdJ490-35" value="+login(credentials: array) : bool" style="text;strokeColor=none;fillColor=none;align=left;verticalAlign=top;spacingLeft=4;spacingRight=4;overflow=hidden;rotatable=0;points=[[0,0.5],[1,0.5]];portConstraint=eastwest;whiteSpace=wrap;html=1;" vertex="1" parent="4jfZitokeRGyZpIdJ490-33">
          <mxGeometry y="38" width="240" height="26" as="geometry" />
        </mxCell>
        <mxCell id="4jfZitokeRGyZpIdJ490-36" value="+logout(request: Request) : void" style="text;strokeColor=none;fillColor=none;align=left;verticalAlign=top;spacingLeft=4;spacingRight=4;overflow=hidden;rotatable=0;points=[[0,0.5],[1,0.5]];portConstraint=eastwest;whiteSpace=wrap;html=1;" vertex="1" parent="4jfZitokeRGyZpIdJ490-33">
          <mxGeometry y="64" width="240" height="26" as="geometry" />
        </mxCell>
        <mxCell id="4jfZitokeRGyZpIdJ490-37" value="+getCurrentUser() : mixed" style="text;strokeColor=none;fillColor=none;align=left;verticalAlign=top;spacingLeft=4;spacingRight=4;overflow=hidden;rotatable=0;points=[[0,0.5],[1,0.5]];portConstraint=eastwest;whiteSpace=wrap;html=1;" vertex="1" parent="4jfZitokeRGyZpIdJ490-33">
          <mxGeometry y="90" width="240" height="26" as="geometry" />
        </mxCell>
        <mxCell id="4jfZitokeRGyZpIdJ490-38" value="&lt;div&gt;Auth&lt;/div&gt;" style="swimlane;fontStyle=1;align=center;verticalAlign=top;childLayout=stackLayout;horizontal=1;startSize=20;horizontalStack=0;resizeParent=1;resizeParentMax=0;resizeLast=0;collapsible=1;marginBottom=0;whiteSpace=wrap;html=1;" vertex="1" parent="1">
          <mxGeometry x="390" y="1082.33" width="240" height="106" as="geometry" />
        </mxCell>
        <mxCell id="4jfZitokeRGyZpIdJ490-39" value="" style="line;strokeWidth=1;fillColor=none;align=left;verticalAlign=middle;spacingTop=-1;spacingLeft=3;spacingRight=3;rotatable=0;labelPosition=right;points=[];portConstraint=eastwest;strokeColor=inherit;" vertex="1" parent="4jfZitokeRGyZpIdJ490-38">
          <mxGeometry y="20" width="240" height="8" as="geometry" />
        </mxCell>
        <mxCell id="4jfZitokeRGyZpIdJ490-40" value="+attempt(credentials: array) : bool" style="text;strokeColor=none;fillColor=none;align=left;verticalAlign=top;spacingLeft=4;spacingRight=4;overflow=hidden;rotatable=0;points=[[0,0.5],[1,0.5]];portConstraint=eastwest;whiteSpace=wrap;html=1;" vertex="1" parent="4jfZitokeRGyZpIdJ490-38">
          <mxGeometry y="28" width="240" height="26" as="geometry" />
        </mxCell>
        <mxCell id="4jfZitokeRGyZpIdJ490-41" value="+logout() : void" style="text;strokeColor=none;fillColor=none;align=left;verticalAlign=top;spacingLeft=4;spacingRight=4;overflow=hidden;rotatable=0;points=[[0,0.5],[1,0.5]];portConstraint=eastwest;whiteSpace=wrap;html=1;" vertex="1" parent="4jfZitokeRGyZpIdJ490-38">
          <mxGeometry y="54" width="240" height="26" as="geometry" />
        </mxCell>
        <mxCell id="4jfZitokeRGyZpIdJ490-42" value="+user() : ?User" style="text;strokeColor=none;fillColor=none;align=left;verticalAlign=top;spacingLeft=4;spacingRight=4;overflow=hidden;rotatable=0;points=[[0,0.5],[1,0.5]];portConstraint=eastwest;whiteSpace=wrap;html=1;" vertex="1" parent="4jfZitokeRGyZpIdJ490-38">
          <mxGeometry y="80" width="240" height="26" as="geometry" />
        </mxCell>
        <mxCell id="4jfZitokeRGyZpIdJ490-43" value="User" style="swimlane;fontStyle=1;align=center;verticalAlign=top;childLayout=stackLayout;horizontal=1;startSize=30;horizontalStack=0;resizeParent=1;resizeParentMax=0;resizeLast=0;collapsible=1;marginBottom=0;whiteSpace=wrap;html=1;" vertex="1" parent="1">
          <mxGeometry x="390" y="1332.33" width="240" height="168" as="geometry" />
        </mxCell>
        <mxCell id="4jfZitokeRGyZpIdJ490-46" value="+id: int" style="text;strokeColor=none;fillColor=none;align=left;verticalAlign=top;spacingLeft=4;spacingRight=4;overflow=hidden;rotatable=0;points=[[0,0.5],[1,0.5]];portConstraint=eastwest;whiteSpace=wrap;html=1;" vertex="1" parent="4jfZitokeRGyZpIdJ490-43">
          <mxGeometry y="30" width="240" height="26" as="geometry" />
        </mxCell>
        <mxCell id="4jfZitokeRGyZpIdJ490-47" value="+name: string" style="text;strokeColor=none;fillColor=none;align=left;verticalAlign=top;spacingLeft=4;spacingRight=4;overflow=hidden;rotatable=0;points=[[0,0.5],[1,0.5]];portConstraint=eastwest;whiteSpace=wrap;html=1;" vertex="1" parent="4jfZitokeRGyZpIdJ490-43">
          <mxGeometry y="56" width="240" height="26" as="geometry" />
        </mxCell>
        <mxCell id="4jfZitokeRGyZpIdJ490-48" value="+email: string" style="text;strokeColor=none;fillColor=none;align=left;verticalAlign=top;spacingLeft=4;spacingRight=4;overflow=hidden;rotatable=0;points=[[0,0.5],[1,0.5]];portConstraint=eastwest;whiteSpace=wrap;html=1;" vertex="1" parent="4jfZitokeRGyZpIdJ490-43">
          <mxGeometry y="82" width="240" height="26" as="geometry" />
        </mxCell>
        <mxCell id="4jfZitokeRGyZpIdJ490-49" value="+password: string" style="text;strokeColor=none;fillColor=none;align=left;verticalAlign=top;spacingLeft=4;spacingRight=4;overflow=hidden;rotatable=0;points=[[0,0.5],[1,0.5]];portConstraint=eastwest;whiteSpace=wrap;html=1;" vertex="1" parent="4jfZitokeRGyZpIdJ490-43">
          <mxGeometry y="108" width="240" height="26" as="geometry" />
        </mxCell>
        <mxCell id="4jfZitokeRGyZpIdJ490-45" value="+role: string" style="text;strokeColor=none;fillColor=none;align=left;verticalAlign=top;spacingLeft=4;spacingRight=4;overflow=hidden;rotatable=0;points=[[0,0.5],[1,0.5]];portConstraint=eastwest;whiteSpace=wrap;html=1;" vertex="1" parent="4jfZitokeRGyZpIdJ490-43">
          <mxGeometry y="134" width="240" height="26" as="geometry" />
        </mxCell>
        <mxCell id="4jfZitokeRGyZpIdJ490-44" value="" style="line;strokeWidth=1;fillColor=none;align=left;verticalAlign=middle;spacingTop=-1;spacingLeft=3;spacingRight=3;rotatable=0;labelPosition=right;points=[];portConstraint=eastwest;strokeColor=inherit;" vertex="1" parent="4jfZitokeRGyZpIdJ490-43">
          <mxGeometry y="160" width="240" height="8" as="geometry" />
        </mxCell>
        <mxCell id="4jfZitokeRGyZpIdJ490-50" value="" style="endArrow=block;dashed=1;endFill=0;endSize=12;html=1;rounded=0;" edge="1" parent="1" source="4jfZitokeRGyZpIdJ490-20" target="4jfZitokeRGyZpIdJ490-1">
          <mxGeometry width="160" relative="1" as="geometry">
            <mxPoint x="450" y="500" as="sourcePoint" />
            <mxPoint x="610" y="500" as="targetPoint" />
          </mxGeometry>
        </mxCell>
        <mxCell id="4jfZitokeRGyZpIdJ490-62" value="implements" style="edgeLabel;html=1;align=center;verticalAlign=middle;resizable=0;points=[];" vertex="1" connectable="0" parent="4jfZitokeRGyZpIdJ490-50">
          <mxGeometry x="-0.3889" y="1" relative="1" as="geometry">
            <mxPoint as="offset" />
          </mxGeometry>
        </mxCell>
        <mxCell id="4jfZitokeRGyZpIdJ490-51" value="" style="endArrow=block;dashed=1;endFill=0;endSize=12;html=1;rounded=0;" edge="1" parent="1" source="4jfZitokeRGyZpIdJ490-33" target="4jfZitokeRGyZpIdJ490-1">
          <mxGeometry width="160" relative="1" as="geometry">
            <mxPoint x="770" y="486" as="sourcePoint" />
            <mxPoint x="466" y="236" as="targetPoint" />
          </mxGeometry>
        </mxCell>
        <mxCell id="4jfZitokeRGyZpIdJ490-61" value="implements" style="edgeLabel;html=1;align=center;verticalAlign=middle;resizable=0;points=[];" vertex="1" connectable="0" parent="4jfZitokeRGyZpIdJ490-51">
          <mxGeometry x="-0.0312" y="1" relative="1" as="geometry">
            <mxPoint y="1" as="offset" />
          </mxGeometry>
        </mxCell>
        <mxCell id="4jfZitokeRGyZpIdJ490-52" value="&lt;div&gt;depend&lt;/div&gt;" style="endArrow=open;endSize=12;dashed=1;html=1;rounded=0;" edge="1" parent="1" source="4jfZitokeRGyZpIdJ490-7" target="4jfZitokeRGyZpIdJ490-20">
          <mxGeometry width="160" relative="1" as="geometry">
            <mxPoint x="450" y="500" as="sourcePoint" />
            <mxPoint x="610" y="500" as="targetPoint" />
          </mxGeometry>
        </mxCell>
        <mxCell id="4jfZitokeRGyZpIdJ490-53" value="Use" style="endArrow=open;endSize=12;dashed=1;html=1;rounded=0;" edge="1" parent="1" source="4jfZitokeRGyZpIdJ490-33" target="4jfZitokeRGyZpIdJ490-38">
          <mxGeometry width="160" relative="1" as="geometry">
            <mxPoint x="939" y="483.33000000000004" as="sourcePoint" />
            <mxPoint x="945" y="652.33" as="targetPoint" />
          </mxGeometry>
        </mxCell>
        <mxCell id="4jfZitokeRGyZpIdJ490-63" value="depend" style="edgeLabel;html=1;align=center;verticalAlign=middle;resizable=0;points=[];" vertex="1" connectable="0" parent="4jfZitokeRGyZpIdJ490-53">
          <mxGeometry x="0.1175" y="1" relative="1" as="geometry">
            <mxPoint y="1" as="offset" />
          </mxGeometry>
        </mxCell>
        <mxCell id="4jfZitokeRGyZpIdJ490-54" value="" style="endArrow=diamondThin;endFill=0;endSize=24;html=1;rounded=0;" edge="1" parent="1" source="4jfZitokeRGyZpIdJ490-33" target="4jfZitokeRGyZpIdJ490-20">
          <mxGeometry width="160" relative="1" as="geometry">
            <mxPoint x="450" y="932.33" as="sourcePoint" />
            <mxPoint x="790.0000000000005" y="840.0044186046513" as="targetPoint" />
            <Array as="points">
              <mxPoint x="910" y="900" />
            </Array>
          </mxGeometry>
        </mxCell>
        <mxCell id="4jfZitokeRGyZpIdJ490-57" value="" style="endArrow=blockThin;html=1;edgeStyle=orthogonalEdgeStyle;rounded=0;endFill=1;" edge="1" parent="1" source="4jfZitokeRGyZpIdJ490-38" target="4jfZitokeRGyZpIdJ490-43">
          <mxGeometry relative="1" as="geometry">
            <mxPoint x="490" y="1212.33" as="sourcePoint" />
            <mxPoint x="650" y="1212.33" as="targetPoint" />
          </mxGeometry>
        </mxCell>
      </root>
    </mxGraphModel>
  </diagram>
</mxfile>
